<svg width="26" height="28" viewBox="0 0 26 28" fill="none" xmlns="http://www.w3.org/2000/svg">
<path d="M3.83334 12.0167H2.13334C1.50717 12.0167 1 12.5805 1 13.2758V16.4242C1 17.1195 1.50717 17.6834 2.13334 17.6834H3.83334V9.93872C3.83334 5.76634 8.02385 1.25 13.1834 1.25C18.3429 1.25 22.5334 5.76634 22.5334 9.93872V14.2834" stroke="white" stroke-width="1.2" stroke-linecap="round"/>
<path d="M22.5332 12.0166H23.6665C24.2927 12.0166 24.7999 12.5804 24.7999 13.2757V16.4241C24.7999 17.1194 24.2927 17.6833 23.6665 17.6833H22.5332" stroke="white" stroke-width="1.2" stroke-linecap="round"/>
<path d="M20.2675 14.2834L20.2664 17.1168C20.2516 19.1613 19.2135 21.7997 17.4336 23.1359" stroke="white" stroke-width="1.2" stroke-linecap="round"/>
<path d="M9.5 5.21655C9.5 9.18323 17.3982 14.2832 21.4 14.2832" stroke="white" stroke-width="1.2" stroke-linecap="round"/>
<path d="M10.0663 7.4834C8.36628 8.19173 6.09961 11.3435 6.09961 13.7167V17.1168C6.09961 19.605 7.83985 22.6338 10.6766 23.9151" stroke="white" stroke-width="1.2" stroke-linecap="round"/>
<path fill-rule="evenodd" clip-rule="evenodd" d="M15.7343 25.6167C15.7343 26.2429 15.2271 26.7501 14.6009 26.7501H12.9009C12.2747 26.7501 11.7676 26.2429 11.7676 25.6167C11.7676 24.9906 12.2747 24.4834 12.9009 24.4834H14.6009C15.2271 24.4834 15.7343 24.9906 15.7343 25.6167V25.6167Z" stroke="white" stroke-width="1.2" stroke-linecap="round"/>
<path d="M15.7344 25.6167H15.8375C19.5361 25.6167 22.5344 22.6185 22.5344 18.9199V15.9834" stroke="white" stroke-width="1.2" stroke-linecap="round"/>
</svg>
