<svg width="36" height="36" viewBox="0 0 36 36" fill="none" xmlns="http://www.w3.org/2000/svg">
<path fill-rule="evenodd" clip-rule="evenodd" d="M18 0C8.0595 0 0 8.0595 0 18C0 27.9405 8.0595 36 18 36C27.9405 36 36 27.9405 36 18C36 8.0595 27.9405 0 18 0ZM18 7.50007C21.7215 7.50007 24.75 10.5286 24.75 14.2501C24.75 17.9716 21.7215 21.0001 18 21.0001C14.2785 21.0001 11.25 17.9716 11.25 14.2501C11.25 10.5286 14.2785 7.50007 18 7.50007ZM7.94551 29.0984C10.6095 31.5149 14.13 32.9999 18 32.9999C21.87 32.9999 25.3905 31.5149 28.0545 29.0984C26.7855 26.1614 22.776 23.9999 18 23.9999C13.224 23.9999 9.21451 26.1614 7.94551 29.0984Z" fill="#E0E0E0"/>
</svg>
