<svg width="20" height="20" viewBox="0 0 20 20" fill="none" xmlns="http://www.w3.org/2000/svg">
<path fill-rule="evenodd" clip-rule="evenodd" d="M12.0827 14.5831C12.0827 15.7339 11.1502 16.6664 9.99935 16.6664C8.84852 16.6664 7.91602 15.7339 7.91602 14.5831C7.91602 13.4323 8.84852 12.4998 9.99935 12.4998C11.1502 12.4998 12.0827 13.4323 12.0827 14.5831Z" stroke="white" stroke-linecap="round" stroke-linejoin="round"/>
<path d="M11.6663 6.66626V9.99959H14.1663C16.9272 9.99959 19.1663 12.2388 19.1663 14.9996V19.1663H0.833008V14.9996C0.833008 12.2388 3.07217 9.99959 5.83301 9.99959H8.33301V6.66626" stroke="white" stroke-linecap="round" stroke-linejoin="round"/>
<path fill-rule="evenodd" clip-rule="evenodd" d="M17.7697 2.76825C16.6222 2.04575 14.403 0.833252 9.99967 0.833252C5.59634 0.833252 3.37717 2.04575 2.22967 2.76825C1.35551 3.31825 0.833008 4.24909 0.833008 5.25742V6.75909C0.833008 7.16742 1.17467 7.49992 1.59717 7.49992H5.06884C5.49134 7.49992 5.83301 7.16742 5.83301 6.75909V4.49075C6.83384 4.11659 7.85634 3.79575 9.99967 3.79575C12.1413 3.79575 13.1647 4.11659 14.1663 4.49159V6.75909C14.1663 7.16742 14.508 7.49992 14.9305 7.49992H18.4022C18.8247 7.49992 19.1663 7.16742 19.1663 6.75909V5.25742C19.1663 4.24909 18.6438 3.31825 17.7697 2.76825Z" stroke="white" stroke-linecap="round" stroke-linejoin="round"/>
</svg>
