<svg width="600" height="143" viewBox="0 0 3060 730" fill="none" xmlns="http://www.w3.org/2000/svg">
<rect width="3060" height="730" fill="#E52423"/>
<path fill-rule="evenodd" clip-rule="evenodd" d="M1390.69 467.83C1390.3 466.884 1389.63 466.034 1388.68 465.649C1385.71 464.51 1381.69 467.173 1379.78 469.162C1373.36 475.706 1372.4 486.822 1373.17 495.451C1376.04 525.447 1404 544.053 1431.77 543.299C1515.86 546.523 1544.11 437.931 1494.02 381.358C1486.08 372.439 1480.42 371.573 1477.35 359.238C1470.36 330.478 1503.97 306.37 1531.08 315.866L1532.7 316.443L1534.14 317.389C1572.17 342.252 1589.78 387.341 1591.03 431.114C1592.57 481.047 1573.61 530.884 1539.9 567.809C1515.1 595.045 1477.56 609.289 1441.27 611.566C1383.05 615.368 1323.87 588.982 1305.77 530.596C1287.48 471.648 1309.32 403.301 1369.54 378.535C1400.38 365.815 1433.7 369.328 1462.43 385.56C1485.79 398.665 1495.66 416.309 1500.45 441.653C1504.87 465.2 1496.43 488.827 1479.29 505.444C1464.65 519.592 1442.33 529.264 1422.04 522.239C1407.68 517.394 1398.77 505.525 1394.55 491.49C1393.03 486.357 1392.26 481.047 1391.68 475.738C1391.39 473.557 1391.3 470.044 1390.72 467.862L1390.69 467.83ZM1661.2 275.99L1634.01 305.038C1611.99 328.585 1574.83 337.889 1552.14 309.401C1536.05 289.175 1563.25 261.088 1576.37 246.652L1636.88 180.294C1649.81 166.147 1673.94 134.547 1695.68 142.423C1710.42 147.732 1723.64 157.228 1727.57 173.076C1733.32 196.238 1715.8 220.731 1701.42 237.253C1688.78 251.593 1675.27 263.35 1661.2 275.99ZM1493.06 224.918C1489.9 241.343 1487.22 256.709 1482.42 272.942C1477.26 290.971 1466.91 321.833 1444.98 324.96C1434.44 326.484 1425.44 321.063 1418.65 313.572C1360.43 249.026 1416.55 177.92 1461.16 126.383C1480.13 104.552 1514.32 123.624 1510.1 154.758C1506.65 179.54 1499.46 201.082 1493.06 224.902V224.918ZM1267.54 175.273C1274.15 170.141 1279.51 170.333 1287.37 169.675C1299.72 168.729 1312.46 171.007 1320.4 181.353C1335.15 200.344 1321.93 226.057 1325.95 245.61C1327.01 250.646 1329.02 255.298 1331.41 259.853C1343.18 281.78 1360.8 295.928 1365.69 322.121C1368.28 335.884 1359.66 349.454 1350.18 358.661C1338.02 370.434 1313.6 383.716 1300.09 366.248C1290.9 354.378 1288.7 341.097 1281.32 329.035C1267.25 306.161 1256.91 274.354 1253.46 247.775C1251.07 228.976 1248.29 187.592 1267.53 175.257L1267.54 175.273ZM1163.46 382.497C1181.84 385.159 1199.65 386.859 1217.55 392.65C1246.09 401.857 1267.16 419.229 1276.06 448.742C1278.16 456.057 1278.07 463.548 1274.25 470.284C1261.99 492.019 1217.84 488.217 1196.3 487.945C1167.08 487.56 1118.73 495.532 1100.53 466.306C1091.05 451.116 1090.57 429.671 1090.67 412.203C1090.76 404.889 1092.87 398.055 1097.66 392.457C1112.31 375.471 1143.63 379.641 1163.46 382.497ZM1707.75 409.46C1729.77 402.916 1777.26 389.057 1783.68 423.319C1786.36 437.931 1785.02 457.404 1778.13 470.685C1764.33 497.168 1738.58 493.559 1714.16 498.114C1708.32 499.157 1702.58 500.296 1696.74 501.338C1671.36 505.894 1636.61 501.242 1629.91 471.439C1623.97 445.246 1646.38 425.115 1669.45 418.09C1681.9 414.288 1695.12 413.246 1707.76 409.444L1707.75 409.46Z" fill="#F5811E"/>
<path fill-rule="evenodd" clip-rule="evenodd" d="M1390.88 467.926C1390.5 466.98 1389.82 466.13 1388.88 465.745C1385.91 464.606 1381.88 467.269 1379.97 469.258C1373.55 475.802 1372.59 486.918 1373.36 495.548C1376.23 525.446 1404.2 544.149 1431.97 543.395C1516.05 546.523 1544.3 437.931 1494.21 381.454C1486.27 372.535 1480.61 371.669 1477.54 359.334C1470.55 330.574 1504.16 306.466 1531.27 315.962L1532.89 316.539L1534.34 317.486C1572.36 342.348 1589.97 387.437 1591.23 431.21C1592.77 481.144 1573.8 530.884 1540.1 567.905C1515.29 595.141 1477.75 609.385 1441.37 611.662C1383.24 615.464 1324.06 589.078 1305.97 530.692C1287.68 471.744 1309.51 403.301 1369.74 378.631C1400.57 365.911 1433.8 369.424 1462.62 385.656C1485.89 398.761 1495.85 416.405 1500.65 441.749C1505.06 465.296 1496.62 488.923 1479.49 505.541C1464.84 519.688 1442.52 529.264 1422.23 522.335C1407.87 517.394 1398.97 505.621 1394.75 491.586C1393.21 486.373 1392.45 481.144 1391.88 475.834C1391.59 473.557 1391.49 470.14 1390.91 467.958L1390.88 467.926ZM1661.4 276.086L1634.2 305.135C1612.18 328.682 1575.02 337.985 1552.34 309.498C1536.25 289.271 1563.44 261.088 1576.56 246.748L1637.08 180.39C1650.01 166.243 1674.14 134.547 1695.87 142.423C1710.62 147.829 1723.84 157.228 1727.77 173.172C1733.51 196.334 1715.99 220.731 1701.62 237.349C1688.98 251.689 1675.47 263.446 1661.4 276.086ZM1493.25 225.014C1489.99 241.439 1487.41 256.806 1482.61 273.038C1477.45 290.971 1467.1 321.929 1445.17 325.057C1434.63 326.484 1425.63 321.159 1418.84 313.572C1360.62 249.026 1416.74 178.016 1461.36 126.479C1480.32 104.552 1514.51 123.72 1510.29 154.854C1506.84 179.54 1499.56 201.178 1493.25 224.998V225.014ZM1267.73 175.37C1274.25 170.156 1279.7 170.429 1287.56 169.772C1299.92 168.729 1312.66 171.007 1320.6 181.353C1335.34 200.424 1322.04 226.153 1326.15 245.706C1327.21 250.742 1329.12 255.394 1331.6 259.949C1343.28 281.78 1360.99 296.024 1365.89 322.217C1368.47 335.98 1359.76 349.454 1350.37 358.661C1338.21 370.434 1313.79 383.812 1300.29 366.344C1291.09 354.378 1288.9 341.193 1281.52 329.131C1267.45 306.257 1257.1 274.45 1253.65 247.871C1251.26 229.072 1248.48 187.688 1267.72 175.354L1267.73 175.37ZM1163.65 382.593C1182.03 385.255 1199.84 386.956 1217.74 392.65C1246.29 401.857 1267.35 419.325 1276.25 448.839C1278.36 456.153 1278.16 463.644 1274.44 470.381C1262.09 492.115 1218.03 488.313 1196.49 488.041C1167.27 487.656 1118.92 495.628 1100.73 466.403C1091.25 451.213 1090.76 429.767 1090.86 412.299C1090.86 404.985 1093.06 398.055 1097.86 392.457C1112.5 375.471 1143.82 379.737 1163.65 382.593ZM1707.94 409.556C1729.87 403.012 1777.45 389.153 1783.87 423.415C1786.55 437.931 1785.22 457.5 1778.32 470.782C1764.52 497.168 1738.77 493.655 1714.36 498.21C1708.52 499.253 1702.77 500.392 1696.93 501.434C1671.55 505.894 1636.8 501.338 1630 471.535C1624.16 445.342 1646.57 425.115 1669.64 418.186C1682.09 414.384 1695.31 413.342 1707.95 409.54L1707.94 409.556Z" fill="#FEFEFE"/>
<path fill-rule="evenodd" clip-rule="evenodd" d="M1359.28 496.878C1371.15 564.279 1449.39 565.883 1489.42 537.797C1552.43 493.751 1532.51 391.142 1493.64 361.708C1481.86 339.973 1509.73 323.259 1526.57 329.146C1589.86 370.53 1596.95 484.543 1529.54 558.489C1475.72 617.436 1346.36 613.17 1319.44 526.505C1290.05 431.675 1376.33 353.174 1455.61 397.782C1478.32 410.598 1483.58 427.874 1486.64 444.299C1496.7 498.033 1423.16 537.604 1408.3 487.591C1405.43 477.726 1405.91 467.188 1404.08 462.905C1394.7 439.936 1351.32 452.174 1359.28 496.894V496.878Z" fill="#F5811E"/>
<path fill-rule="evenodd" clip-rule="evenodd" d="M1586.99 256.244L1647.6 189.789C1658.89 177.358 1679.96 151.63 1690.98 155.704C1756 179.347 1668.47 250.822 1651.44 266.109L1623.86 295.542C1603.84 316.908 1577.89 318.897 1563.54 300.755C1555.96 291.356 1572.34 272.284 1586.99 256.244Z" fill="#8DD7F7"/>
<path fill-rule="evenodd" clip-rule="evenodd" d="M1496.2 152.961C1492.47 179.732 1486.05 196.911 1479.34 221.773C1478.67 224.532 1462.02 340.326 1429.45 304.268C1377.36 246.459 1433.19 180.582 1472.06 135.685C1480.77 125.628 1498.77 133.889 1496.19 152.961H1496.2Z" fill="#00A550"/>
<path fill-rule="evenodd" clip-rule="evenodd" d="M1275.96 186.854C1279.8 183.533 1284.39 184.095 1288.7 183.822C1328.73 180.502 1306.9 223.024 1312.25 248.56C1318.38 277.898 1346.54 296.023 1351.99 324.783C1355.15 342.155 1320.68 369.583 1311.58 357.81C1303.54 347.368 1300.77 333.509 1293.58 321.832C1280.46 300.466 1270.78 270.102 1267.72 246.09C1263.79 215.614 1267.53 191.313 1275.95 186.854H1275.96Z" fill="#FFF100"/>
<path fill-rule="evenodd" clip-rule="evenodd" d="M1161.53 396.435C1194.85 401.279 1247.91 403.749 1262.55 452.816C1269.64 476.267 1230.37 474.358 1196.57 473.989C1176.18 473.7 1126.28 480.726 1112.78 458.991C1104.83 446.175 1104.93 424.248 1105.03 412.379C1105.22 390.74 1133.95 392.441 1161.53 396.435Z" fill="#00ADEF"/>
<path fill-rule="evenodd" clip-rule="evenodd" d="M1711.95 423.014C1697.98 427.184 1684.76 428.227 1673.73 431.563C1627.39 445.614 1633.8 498.387 1694.41 487.576C1700.16 486.533 1706 485.394 1711.74 484.351C1731.75 480.646 1755.51 483.87 1765.65 464.317C1771.77 452.64 1771.68 435.365 1769.86 425.965C1766.7 408.786 1738.55 415.042 1711.93 423.03L1711.95 423.014Z" fill="#C656A0"/>
<path fill-rule="evenodd" clip-rule="evenodd" d="M1928.16 366.364H1891.84V362.589L1891.95 357.819C1892.06 356.598 1892.06 355.265 1892.06 353.819V343.039L1891.95 336.71C1891.95 334.607 1891.84 332.372 1891.73 330.043C1891.61 327.94 1891.5 325.705 1891.27 323.377C1891.05 321.161 1890.71 318.926 1890.03 316.822C1889.47 314.813 1888.68 312.935 1887.8 311.151C1886.79 309.367 1885.68 307.714 1884.44 306.268C1883.2 304.709 1881.86 303.376 1880.29 302.155C1878.71 300.935 1877.15 299.939 1875.35 299.038C1873.66 298.155 1871.87 297.366 1869.96 296.822C1868.06 296.258 1866.03 295.826 1864.02 295.601C1862.01 295.376 1859.98 295.263 1857.97 295.376C1855.96 295.488 1853.93 295.714 1851.81 296.258C1849.91 296.709 1847.89 297.366 1845.88 298.268C1843.87 299.15 1841.95 300.277 1840.05 301.611C1838.59 302.606 1837.14 303.714 1835.79 305.047C1835.68 307.714 1835.56 310.606 1835.45 313.836C1835.34 317.724 1835.23 321.949 1835.23 326.4L1835 340.842V356.185L1835.11 372.073C1835.11 377.406 1835.23 382.852 1835.23 388.299L1835.56 404.299L1835.9 419.304C1836.01 427.417 1836.24 434.873 1836.47 441.54L1836.8 454.648C1836.92 457.653 1837.14 460.207 1837.25 462.198C1837.48 466.198 1837.93 469.747 1838.72 472.865C1839.51 475.869 1840.52 478.536 1841.74 480.865C1843.1 483.193 1844.54 485.316 1846.12 486.968C1847.58 488.752 1849.26 490.198 1851.06 491.306C1852.86 492.527 1854.76 493.522 1856.66 494.199C1858.67 494.968 1860.7 495.532 1862.82 495.757C1865.05 495.983 1867.31 496.208 1869.43 496.208C1871.55 496.095 1873.69 495.983 1875.82 495.645C1877.83 495.307 1879.85 494.968 1881.64 494.424C1883.54 493.973 1885.34 493.316 1887.03 492.64C1888.49 491.964 1889.83 491.306 1890.96 490.63C1891.52 490.292 1891.97 489.954 1892.31 489.635V424.619H1931.66C1931.66 430.835 1931.77 436.957 1931.88 443.174C1932 449.277 1932.22 455.287 1932.45 461.409C1932.56 463.193 1932.67 464.958 1932.79 466.742C1932.9 468.414 1933.01 469.86 1933.24 470.968C1933.46 473.747 1934.02 476.189 1934.93 478.517C1935.72 480.621 1936.73 482.517 1937.95 484.189C1939.19 485.86 1940.64 487.419 1942.1 488.64C1943.68 489.973 1945.35 491.081 1947.15 491.87C1949.05 492.865 1950.97 493.541 1952.98 494.086C1954.99 494.649 1957.02 494.968 1959.25 495.194C1961.6 495.419 1963.85 495.532 1965.86 495.419C1967.98 495.419 1970.13 495.194 1972.14 494.968C1974.15 494.63 1976.17 494.292 1977.96 493.86C1979.76 493.297 1981.43 492.865 1982.9 492.189C1984.36 491.626 1985.58 491.081 1986.49 490.405C1986.94 490.067 1987.28 489.842 1987.61 489.522L1987.73 486.405C1987.84 484.846 1987.95 482.968 1987.95 481.071V469.409C1988.06 461.409 1988.85 449.953 1988.06 442.404C1988.06 434.948 1988.18 427.511 1988.18 415.06V331.921C1988.18 328.804 1987.95 325.912 1987.39 323.358C1986.94 320.691 1986.26 318.362 1985.38 316.015C1984.36 313.799 1983.26 311.677 1982.02 309.799C1980.78 307.902 1979.44 306.137 1977.86 304.578C1976.29 303.019 1974.62 301.686 1972.92 300.465C1971.12 299.244 1969.22 298.249 1967.33 297.348C1965.32 296.578 1963.29 295.902 1961.28 295.451C1959.27 294.887 1957.24 294.681 1955.23 294.568C1953.11 294.568 1951.08 294.681 1949.07 295.019C1947.06 295.357 1945.03 295.789 1943.02 296.578C1941.13 297.254 1939.21 298.136 1937.54 299.244C1936.19 300.014 1934.85 301.028 1933.61 302.024L1933.27 305.461C1933.16 307.357 1933.05 309.461 1932.94 311.47L1932.6 318.813C1932.6 321.48 1932.48 324.147 1932.48 326.926L1932.26 353.819L1932.03 366.383H1928.22L1928.16 366.364ZM2098.7 292.352C2094.66 291.789 2090.28 291.582 2085.59 291.582C2079.99 291.582 2074.82 292.033 2069.88 292.803C2065.06 293.686 2060.7 294.906 2056.55 296.578C2052.28 298.249 2048.36 300.24 2044.77 302.362C2041.18 304.578 2037.93 307.038 2034.91 309.705C2031.77 312.484 2028.97 315.376 2026.38 318.381C2023.92 321.273 2021.67 324.485 2019.66 327.94C2017.53 331.489 2015.62 334.945 2013.95 338.269C2012.26 341.818 2010.81 345.274 2009.46 348.823C2008.56 351.265 2007.66 353.931 2006.88 356.711C2006.1 359.603 2005.42 362.495 2004.99 365.5C2004.42 368.505 2003.97 371.603 2003.64 374.833C2003.18 378.064 2002.96 381.275 2002.85 384.505C2002.62 387.848 2002.51 391.172 2002.62 394.515C2002.62 397.745 2002.73 401.182 2002.96 404.637C2003.18 407.98 2003.52 411.304 2003.97 414.76C2004.42 418.102 2004.88 421.314 2005.44 424.431C2006.68 431.211 2008.46 437.652 2010.6 443.662C2012.75 449.671 2015.32 455.211 2018.34 460.338C2021.37 465.334 2024.84 470.01 2028.99 474.123C2033.03 478.236 2037.63 481.898 2042.78 485.128H2042.89C2048.28 488.471 2053.77 491.231 2059.25 493.241C2064.74 495.25 2070.24 496.471 2075.84 497.128C2081.44 497.692 2087.16 497.804 2092.87 497.241C2098.7 496.677 2104.54 495.569 2110.47 493.898C2124.82 489.785 2136.71 482.442 2146.01 471.888C2155.42 461.221 2162.37 447.211 2166.86 429.99C2168.55 423.323 2169.66 416.769 2170.34 410.327C2170.9 403.773 2171.13 397.332 2170.79 390.872C2170.34 384.543 2169.66 378.082 2168.44 371.641C2167.31 365.199 2165.87 358.758 2163.95 352.298C2163.5 350.964 2162.94 349.405 2162.26 347.847C2161.81 346.401 2161.02 344.504 2160.14 342.288C2159.24 340.185 2158.24 338.062 2157.23 335.959C2156.21 333.856 2154.99 331.734 2153.53 329.405C2152.17 327.076 2150.61 324.729 2148.92 322.513C2147.23 320.184 2145.45 317.949 2143.53 315.733C2141.52 313.517 2139.38 311.395 2137.03 309.404C2134.69 307.395 2132.09 305.517 2129.29 303.62C2126.61 301.836 2123.58 300.183 2120.43 298.737C2117.18 297.291 2113.82 295.958 2110.23 294.963C2106.64 293.855 2102.83 292.953 2098.68 292.408L2098.7 292.352ZM2080.87 357.932C2082.67 357.368 2084.57 357.162 2086.47 357.162C2088.27 357.162 2090.17 357.5 2091.95 357.932C2093.64 358.495 2095.43 359.265 2097.12 360.26C2098.7 361.256 2100.14 362.364 2101.61 363.81C2102.96 365.143 2104.18 366.702 2105.31 368.373C2106.55 370.157 2107.54 372.148 2108.45 374.27C2109.23 376.373 2110.02 378.608 2110.57 381.05C2111.24 383.491 2111.7 386.158 2111.81 388.937C2112.03 391.604 2112.03 394.609 2111.92 397.613C2111.81 400.618 2111.47 403.398 2111.13 405.952C2110.57 408.619 2110 411.06 2109.23 413.295C2108.56 415.398 2107.66 417.407 2106.66 419.304C2105.76 421.201 2104.65 422.854 2103.52 424.187C2102.4 425.633 2101.29 426.966 2099.94 428.074C2098.58 429.182 2097.25 430.178 2095.79 430.854C2094.43 431.624 2092.99 432.187 2091.63 432.525C2090.28 432.976 2088.84 433.201 2087.48 433.295C2086.02 433.521 2084.57 433.408 2082.99 433.183C2081.42 432.957 2079.97 432.507 2078.39 431.962C2076.81 431.286 2075.37 430.403 2073.9 429.408C2072.44 428.3 2071.1 427.079 2069.86 425.633C2068.51 424.187 2067.29 422.516 2066.28 420.638C2065.26 418.854 2064.27 416.863 2063.37 414.628C2062.46 412.412 2061.79 409.858 2061.24 407.191C2060.79 404.524 2060.45 401.632 2060.23 398.515C2060.12 395.172 2060.12 392.186 2060.34 389.407C2060.45 386.515 2060.91 383.735 2061.58 381.181C2062.15 378.74 2062.93 376.411 2063.82 374.289C2064.72 372.073 2065.71 370.063 2066.95 368.392C2068.08 366.495 2069.41 364.955 2070.77 363.622C2072.34 362.176 2073.9 361.068 2075.48 360.072H2075.59C2077.28 359.077 2078.96 358.401 2080.87 357.969V357.932ZM2312.51 298.024C2312.28 297.348 2311.94 296.803 2311.72 296.127H2300.5L2270.34 296.014C2255.65 295.902 2240.96 295.902 2226.27 296.014C2223.02 296.014 2219.89 296.014 2216.86 296.127C2213.95 296.24 2211.26 296.352 2208.79 296.465C2206.55 296.465 2204.52 296.578 2202.74 296.803C2200.39 296.916 2198.14 297.366 2196.24 298.024C2194.34 298.7 2192.54 299.582 2190.96 300.69C2189.38 301.911 2187.82 303.244 2186.47 304.803C2185.12 306.249 2184.01 307.921 2182.88 309.686C2181.87 311.47 2180.87 313.461 2180.08 315.47C2179.3 317.574 2178.62 319.696 2178.19 321.912C2177.74 324.24 2177.29 326.588 2177.06 328.917C2176.84 331.133 2176.72 333.48 2176.72 335.696C2176.72 337.912 2176.95 340.147 2177.17 342.363C2177.4 344.466 2177.85 346.588 2178.3 348.579C2178.75 350.589 2179.31 352.354 2179.88 353.913C2180.33 355.021 2180.78 355.922 2181.23 356.805C2183.35 357.368 2185.49 357.687 2187.62 357.913C2190.42 358.363 2193.1 358.476 2195.92 358.476C2198.83 358.589 2201.74 358.476 2204.67 358.364C2207.47 358.251 2210.27 358.138 2213.09 357.8L2217.35 357.349V361.688C2217.24 365.8 2217.24 370.683 2217.24 376.355C2217.24 382.026 2217.24 387.022 2217.35 391.134L2217.58 405.351L2217.8 418.459C2217.91 422.572 2218.14 426.459 2218.25 430.234C2218.36 433.784 2218.59 437.239 2218.82 440.45C2218.93 443.793 2219.15 446.46 2219.38 448.563C2219.6 450.779 2219.83 452.563 2220.06 453.897C2220.62 457.672 2221.41 461.24 2222.29 464.451C2223.3 467.681 2224.3 470.667 2225.65 473.334C2226.89 476.001 2228.23 478.442 2229.69 480.564C2231.16 482.78 2232.71 484.677 2234.29 486.236C2235.87 487.907 2237.54 489.353 2239.35 490.574C2241.04 491.682 2242.82 492.677 2244.62 493.466C2246.43 494.255 2248.1 494.912 2249.9 495.25C2251.7 495.588 2253.38 495.814 2255.07 495.814C2256.64 495.701 2258.32 495.588 2259.89 495.138C2261.47 494.799 2263.03 494.255 2264.5 493.466C2265.96 492.79 2267.29 491.907 2268.53 490.912C2269.55 490.142 2270.43 489.128 2271.33 488.133C2271.56 486.123 2271.78 483.794 2272.01 481.353C2272.23 478.574 2272.46 475.682 2272.57 472.902L2273.14 462.892L2273.7 452.225C2273.93 448.563 2274.04 444.77 2274.15 440.995C2274.26 437.108 2274.38 433.22 2274.49 429.333L2274.71 417.445C2274.71 413.558 2274.83 409.558 2274.83 405.67V382.552C2274.83 378.89 2274.71 375.322 2274.6 371.885C2274.6 368.448 2274.49 365.218 2274.38 361.988L2274.26 358.101H2278.19L2284.91 357.537L2288.95 357.086C2291.86 356.974 2294.44 356.523 2296.69 355.753C2298.93 355.077 2300.95 354.082 2302.63 352.861C2304.43 351.528 2306.1 350.082 2307.45 348.523C2308.92 346.964 2310.14 345.18 2311.15 343.302C2312.17 341.405 2313.05 339.302 2313.84 337.199C2314.52 334.983 2315.08 332.635 2315.53 330.306C2315.87 327.865 2316.21 325.424 2316.32 322.963C2316.43 320.635 2316.43 318.287 2316.32 315.958C2316.21 313.742 2315.87 311.395 2315.53 309.292C2315.19 307.076 2314.85 305.066 2314.29 303.188C2313.73 301.31 2313.16 299.526 2312.6 297.967L2312.51 298.024ZM2465.1 298.024C2464.76 297.348 2464.54 296.803 2464.2 296.127H2452.99L2422.93 296.014C2408.24 295.902 2393.56 295.902 2378.75 296.014C2375.62 296.014 2372.48 296.014 2369.34 296.127C2366.55 296.24 2363.86 296.352 2361.38 296.465C2359.14 296.465 2357.12 296.578 2355.33 296.803C2352.87 296.916 2350.73 297.366 2348.72 298.024C2346.82 298.7 2345.13 299.582 2343.55 300.69C2341.86 301.911 2340.42 303.244 2339.07 304.803C2337.71 306.249 2336.49 307.921 2335.48 309.686C2334.35 311.583 2333.47 313.461 2332.68 315.47C2331.89 317.574 2331.21 319.696 2330.78 321.912C2330.22 324.24 2329.88 326.588 2329.65 328.917C2329.43 331.133 2329.32 333.48 2329.32 335.696C2329.32 337.912 2329.43 340.147 2329.77 342.363C2329.99 344.466 2330.33 346.588 2330.78 348.579C2331.35 350.589 2331.8 352.354 2332.47 354.025C2332.92 355.021 2333.37 355.922 2333.82 356.805C2335.95 357.368 2338.09 357.687 2340.21 357.913C2342.9 358.363 2345.7 358.476 2348.51 358.476C2351.42 358.589 2354.22 358.476 2357.15 358.364C2360.06 358.251 2362.86 358.138 2365.68 357.8L2369.94 357.349L2369.83 361.688V391.134L2370.06 405.351L2370.4 418.459C2370.51 422.572 2370.62 426.459 2370.85 430.234C2370.96 433.784 2371.18 437.239 2371.3 440.45C2371.52 443.793 2371.75 446.46 2371.97 448.563C2372.09 450.779 2372.31 452.563 2372.54 453.897C2373.21 457.672 2373.89 461.24 2374.88 464.451C2375.79 467.681 2376.89 470.667 2378.13 473.334C2379.37 476.001 2380.82 478.442 2382.29 480.564C2383.75 482.78 2385.2 484.677 2386.89 486.236C2388.47 487.907 2390.14 489.353 2391.83 490.574C2393.63 491.682 2395.3 492.677 2397.11 493.466C2398.89 494.236 2400.69 494.912 2402.48 495.25C2404.17 495.588 2405.95 495.814 2407.53 495.814C2409.22 495.701 2410.78 495.588 2412.36 495.138C2413.94 494.799 2415.49 494.255 2417.07 493.466C2418.54 492.79 2419.87 491.907 2421 490.912C2422.01 490.142 2422.89 489.128 2423.8 488.133C2424.02 486.123 2424.25 483.907 2424.47 481.353C2424.7 478.574 2424.92 475.682 2425.15 472.902L2425.71 462.892L2426.28 452.225C2426.39 448.563 2426.5 444.77 2426.73 440.995C2426.84 437.108 2426.95 433.22 2426.95 429.333L2427.18 417.445C2427.29 413.558 2427.29 409.558 2427.29 405.67V382.552C2427.29 378.89 2427.29 375.322 2427.18 371.885C2427.06 368.448 2427.06 365.218 2426.95 361.988L2426.73 358.101H2430.76L2437.38 357.537L2441.53 357.086C2444.33 356.974 2446.92 356.523 2449.27 355.753C2451.5 355.077 2453.42 354.082 2455.2 352.861C2457 351.528 2458.56 350.082 2460.03 348.523C2461.38 346.964 2462.6 345.18 2463.73 343.302C2464.74 341.405 2465.63 339.302 2466.3 337.199C2467.09 334.983 2467.66 332.635 2467.99 330.306C2468.44 327.865 2468.67 325.424 2468.78 322.963C2469.01 320.635 2469.01 318.287 2468.78 315.958C2468.67 313.742 2468.44 311.395 2468.11 309.292C2467.77 307.076 2467.32 305.066 2466.87 303.188C2466.3 301.291 2465.74 299.526 2465.18 297.967L2465.1 298.024ZM2569.7 292.352C2565.67 291.789 2561.29 291.582 2556.59 291.582C2551 291.582 2545.83 292.033 2540.89 292.803C2536.18 293.686 2531.71 294.906 2527.55 296.578C2523.29 298.249 2519.48 300.24 2515.78 302.362C2512.3 304.578 2508.94 307.038 2505.92 309.705C2502.78 312.484 2499.98 315.376 2497.39 318.381C2494.93 321.273 2492.67 324.485 2490.66 327.94C2488.54 331.489 2486.63 334.945 2485.07 338.269C2483.38 341.818 2481.82 345.274 2480.47 348.823C2479.56 351.265 2478.66 353.931 2477.89 356.711C2477.1 359.603 2476.54 362.495 2475.99 365.5C2475.43 368.505 2474.98 371.603 2474.64 374.833C2474.19 378.064 2473.97 381.275 2473.85 384.505C2473.63 387.848 2473.63 391.172 2473.63 394.515C2473.63 397.858 2473.74 401.182 2473.97 404.637C2474.19 407.98 2474.53 411.304 2474.98 414.76C2475.43 418.102 2475.88 421.314 2476.45 424.431C2477.69 431.211 2479.47 437.652 2481.61 443.662C2483.75 449.671 2486.44 455.211 2489.35 460.338C2492.37 465.334 2495.96 470.01 2500 474.123C2504.04 478.236 2508.64 481.898 2513.79 485.128H2513.9C2519.27 488.471 2524.77 491.231 2530.26 493.241C2535.74 495.25 2541.25 496.471 2546.84 497.128C2552.44 497.692 2558.17 497.804 2563.88 497.241C2569.7 496.677 2575.55 495.569 2581.48 493.898C2595.83 489.785 2607.72 482.442 2617.02 471.888C2626.43 461.221 2633.38 447.211 2637.87 429.99C2639.56 423.323 2640.67 416.769 2641.34 410.327C2641.91 403.773 2642.13 397.332 2641.79 390.872C2641.46 384.543 2640.67 378.082 2639.56 371.641C2638.32 365.199 2636.87 358.758 2634.96 352.298C2634.51 350.964 2633.94 349.405 2633.27 347.847C2632.82 346.401 2632.03 344.504 2631.14 342.288C2630.24 340.185 2629.25 338.062 2628.23 335.959C2627.22 333.856 2626 331.734 2624.64 329.405C2623.18 327.076 2621.62 324.729 2619.93 322.513C2618.35 320.184 2616.46 317.949 2614.56 315.733C2612.55 313.517 2610.41 311.395 2608.06 309.404C2605.71 307.395 2603.12 305.517 2600.32 303.62C2597.63 301.836 2594.61 300.183 2591.45 298.737C2588.21 297.291 2584.84 295.958 2581.26 294.963C2577.67 293.855 2573.85 292.953 2569.7 292.408V292.352ZM2551.88 357.932C2553.68 357.368 2555.58 357.162 2557.48 357.162C2559.28 357.162 2561.18 357.5 2562.96 357.932C2564.65 358.495 2566.44 359.265 2568.13 360.26C2569.7 361.256 2571.15 362.364 2572.62 363.81C2573.97 365.143 2575.19 366.702 2576.32 368.373C2577.56 370.157 2578.55 372.148 2579.45 374.27C2580.24 376.373 2581.03 378.608 2581.57 381.05C2582.25 383.491 2582.7 386.158 2582.93 388.937C2583.04 391.604 2583.15 394.609 2582.93 397.613C2582.81 400.618 2582.48 403.398 2582.14 405.952C2581.69 408.619 2581.01 411.06 2580.24 413.295C2579.57 415.398 2578.66 417.407 2577.78 419.304C2576.77 421.201 2575.66 422.854 2574.53 424.187C2573.4 425.633 2572.3 426.966 2570.94 428.074C2569.7 429.182 2568.26 430.178 2566.79 430.854C2565.44 431.624 2563.99 432.187 2562.64 432.525C2561.29 432.976 2559.84 433.201 2558.49 433.295C2557.03 433.521 2555.58 433.408 2554 433.183C2552.42 432.957 2550.98 432.507 2549.51 431.962C2547.93 431.286 2546.38 430.403 2544.91 429.408C2543.45 428.3 2542.11 427.079 2540.87 425.633C2539.52 424.187 2538.3 422.516 2537.28 420.638C2536.27 418.854 2535.27 416.863 2534.37 414.628C2533.47 412.412 2532.8 409.858 2532.36 407.191C2531.8 404.524 2531.46 401.632 2531.24 398.515C2531.12 395.172 2531.12 392.186 2531.35 389.407C2531.57 386.515 2531.91 383.735 2532.59 381.181C2533.15 378.74 2533.94 376.411 2534.82 374.289C2535.73 372.073 2536.72 370.063 2537.96 368.392C2539.09 366.495 2540.42 364.955 2541.77 363.622C2543.35 362.176 2544.91 361.068 2546.6 360.072C2548.29 359.077 2550.08 358.401 2551.88 357.969V357.932ZM2808.63 443.943C2810.2 438.497 2811.2 432.6 2811.88 426.384L2813 413.051C2813.45 408.712 2813.68 404.825 2813.9 401.595L2814.58 391.585C2814.81 388.355 2814.92 385.482 2815.03 382.796C2815.14 380.017 2815.26 377.463 2815.26 375.134C2815.37 372.805 2815.37 370.458 2815.37 368.354C2815.26 366.345 2815.26 364.242 2815.14 362.251L2814.92 356.241L2814.47 350.57L2813.57 338.682L2813 332.015C2812.66 328.015 2812.1 324.353 2811.31 321.236C2810.52 318.118 2809.41 315.339 2808.06 312.897C2806.82 310.456 2805.38 308.221 2803.8 306.456C2802.11 304.559 2800.44 303.019 2798.63 301.686C2796.74 300.352 2794.71 299.244 2792.7 298.343C2790.69 297.442 2788.55 296.897 2786.31 296.446C2783.96 296.108 2781.71 295.883 2779.47 295.77C2777.35 295.77 2775.1 295.883 2772.98 296.333C2770.85 296.672 2768.71 297.103 2766.7 297.78C2764.69 298.343 2762.78 299.113 2760.99 299.996C2759.21 300.878 2757.63 301.892 2756.28 302.888C2755.49 303.564 2754.7 304.108 2754.04 304.897C2754.38 307 2754.72 309.348 2754.94 311.677C2755.28 314.907 2755.51 318.118 2755.73 321.574C2755.96 325.029 2756.18 328.579 2756.3 332.466C2756.41 336.015 2756.63 339.903 2756.63 343.922C2756.75 347.697 2756.86 351.697 2756.86 355.697C2756.86 359.697 2756.86 363.697 2756.75 367.81C2756.63 371.923 2756.63 375.923 2756.52 379.81C2756.41 383.81 2756.18 387.585 2756.07 391.266C2755.85 395.041 2755.73 398.496 2755.51 401.82C2755.28 405.482 2754.94 408.938 2754.72 411.943C2754.49 415.06 2754.15 417.839 2753.82 420.506C2753.48 423.06 2753.14 425.502 2752.8 427.736C2752.24 430.854 2751.56 433.633 2750.57 435.962C2749.44 438.403 2747.99 440.526 2746.3 442.065C2744.61 443.737 2742.83 444.845 2741.03 445.615C2739.13 446.385 2737.1 446.723 2734.98 446.61C2732.97 446.498 2731.05 445.934 2729.27 444.939C2727.58 444.056 2725.9 442.835 2724.33 441.277C2722.75 439.605 2721.53 437.727 2720.51 435.493C2719.61 433.483 2718.94 431.154 2718.62 428.488C2718.28 425.934 2717.94 423.154 2717.6 420.149C2717.38 417.032 2717.15 413.933 2716.93 410.59C2716.81 407.248 2716.59 403.811 2716.48 400.036C2716.25 396.487 2716.14 392.806 2716.14 388.918L2715.91 377.463C2715.69 361.011 2715.57 344.673 2715.46 328.222V322.325C2715.35 320.879 2715.24 319.658 2715.12 318.775C2714.9 315.996 2714.33 313.555 2713.55 311.32C2712.76 309.217 2711.74 307.32 2710.41 305.648C2709.06 303.977 2707.72 302.418 2706.14 301.085C2704.45 299.864 2702.9 298.756 2701.09 297.855C2699.2 296.972 2697.17 296.183 2695.27 295.639C2693.26 295.075 2691.12 294.756 2689 294.531C2686.65 294.418 2684.28 294.305 2682.27 294.305C2680.15 294.305 2678.01 294.531 2676 294.756C2673.99 294.981 2672.07 295.319 2670.29 295.864C2668.48 296.315 2666.93 296.747 2665.46 297.423C2663.88 298.099 2662.77 298.756 2661.87 299.319C2661.42 299.658 2661.08 299.883 2660.75 300.202C2660.18 305.31 2659.62 310.325 2659.17 315.095C2658.6 320.203 2658.15 325.649 2657.7 331.658C2657.25 337.443 2656.8 343.002 2656.46 348.335C2656.13 354.119 2655.9 359.678 2655.67 365.124C2655.56 370.683 2655.34 376.242 2655.34 381.575C2655.34 386.909 2655.34 392.355 2655.45 397.576C2655.56 402.797 2655.79 407.792 2656.13 412.919C2656.46 417.689 2656.91 422.478 2657.48 427.042V427.154C2658.04 432.488 2658.83 437.371 2659.94 442.047C2660.95 446.61 2662.17 450.836 2663.53 454.723C2664.88 458.385 2666.44 461.841 2668.13 465.052C2669.82 468.282 2671.6 471.268 2673.61 473.841C2675.51 476.395 2677.54 478.724 2679.77 480.846C2681.9 482.855 2684.15 484.621 2686.5 486.179C2688.96 487.738 2691.55 489.184 2694.12 490.405C2696.58 491.626 2699.29 492.621 2701.98 493.522C2704.66 494.405 2707.46 495.194 2710.28 495.738C2713.09 496.283 2715.87 496.734 2718.8 497.072C2724.63 497.635 2730.47 497.954 2736.29 497.954C2740.44 497.954 2744.71 497.616 2748.86 496.846C2753.12 496.17 2757.39 495.175 2761.63 493.729C2765.89 492.396 2769.93 490.612 2773.75 488.396C2777.67 486.292 2781.37 483.719 2784.85 480.846C2788.32 477.954 2791.57 474.63 2794.59 470.949C2797.51 467.287 2800.19 463.174 2802.67 458.611C2805.13 454.16 2807.16 449.277 2808.61 443.943H2808.63ZM2960.32 426.722C2959.08 425.051 2958.08 423.718 2957.18 422.722L2954.27 419.379L2957.97 417.051C2958.65 416.6 2959.21 416.168 2959.77 415.717C2960.22 415.379 2960.68 415.041 2961.01 414.722H2961.13C2964.15 412.055 2966.84 409.163 2969.2 406.158C2971.55 403.266 2973.58 400.149 2975.14 397.05C2976.83 393.82 2978.16 390.496 2979.29 387.153C2980.42 383.81 2981.19 380.374 2981.75 377.031C2982.2 373.481 2982.54 370.026 2982.54 366.589C2982.65 363.152 2982.43 359.697 2981.98 356.26C2981.53 352.823 2980.85 349.368 2979.97 346.044C2979.18 342.701 2978.16 339.49 2977.05 336.372C2975.82 333.255 2974.48 330.269 2973.02 327.377C2971.44 324.485 2969.88 321.705 2968.08 319.151C2966.27 316.484 2964.49 314.156 2962.59 312.033C2960.69 309.93 2958.67 308.033 2956.54 306.249C2953.86 304.146 2951.06 302.249 2948.02 300.578C2944.88 299.019 2941.63 297.573 2938.04 296.352C2934.45 295.132 2930.87 294.136 2927.05 293.347C2923.35 292.578 2919.54 292.014 2915.61 291.676C2911.69 291.225 2907.76 291.113 2903.84 291C2900.02 291 2896.1 291.225 2892.06 291.563C2888.02 291.901 2884.21 292.333 2880.73 292.897C2877.03 293.46 2873.33 294.23 2869.97 295C2866.61 295.77 2863.47 296.784 2860.56 297.78C2857.65 298.662 2854.85 299.883 2852.26 301.122C2849.8 302.23 2847.66 303.451 2845.87 304.672C2844.52 305.554 2843.41 306.569 2842.51 307.451C2842.17 309.235 2841.83 311.451 2841.5 314.005C2841.16 317.01 2840.82 320.56 2840.59 324.447C2840.26 328.672 2840.03 333.123 2839.81 337.668C2839.69 342.232 2839.47 347.002 2839.47 351.884C2839.36 356.88 2839.24 362.101 2839.24 367.34V383.566C2839.24 389.012 2839.36 394.458 2839.47 399.679L2839.69 414.797C2839.81 419.567 2839.92 424.131 2840.14 428.582C2840.26 432.694 2840.48 436.694 2840.71 440.582C2840.93 444.131 2841.16 447.249 2841.38 450.028C2841.61 452.582 2841.83 454.592 2842.06 456.038C2842.85 461.484 2844.18 466.479 2845.76 470.818C2847.34 475.043 2849.24 478.705 2851.58 481.823C2853.93 484.94 2856.3 487.607 2858.87 489.71C2861.33 491.813 2863.92 493.372 2866.5 494.48C2869.07 495.588 2871.77 496.264 2874.24 496.49C2876.81 496.715 2879.4 496.602 2881.86 495.926C2884.32 495.363 2886.58 494.48 2888.59 493.147C2890.28 492.152 2891.84 490.818 2893.08 489.147L2893.41 486.142C2893.53 484.809 2893.64 483.363 2893.75 481.578L2894.54 470.348C2894.77 468.245 2894.88 466.348 2894.99 464.451L2895.22 458.235C2895.44 454.235 2895.55 450.46 2895.78 446.685L2896.01 442.347C2896.01 441.239 2896.12 440.244 2896.12 439.117V429.558H2899.48L2902.39 427.999L2904.4 430.891C2904.85 431.568 2905.3 432.338 2905.75 433.108C2910.36 441.558 2914.73 450.103 2919.32 458.667L2925.14 469.559L2926.83 472.789C2928.41 475.907 2930.08 478.686 2931.77 481.128C2933.57 483.682 2935.47 485.804 2937.37 487.682C2939.38 489.579 2941.4 491.231 2943.41 492.565C2945.42 493.898 2947.45 495.006 2949.46 495.795C2951.47 496.677 2953.5 497.241 2955.51 497.579C2957.41 497.917 2959.32 497.917 2961.33 497.804C2963.34 497.692 2965.15 497.241 2966.93 496.696C2968.62 496.133 2970.29 495.363 2971.98 494.368C2973.56 493.372 2975.01 492.264 2976.36 490.818C2977.82 489.372 2979.05 487.701 2980.29 485.823C2981.53 483.926 2982.41 481.823 2983.2 479.607C2983.99 477.597 2984.55 475.381 2985 472.94C2984.55 471.832 2984.1 470.498 2983.42 468.94C2982.63 466.93 2981.62 464.714 2980.51 462.273C2979.27 459.719 2978.05 457.277 2976.81 454.723C2975.57 452.394 2974.24 449.84 2972.66 447.061C2969.86 441.84 2967.06 437.051 2964.24 432.619C2962.78 430.403 2961.56 428.394 2960.32 426.722ZM2928.26 363.49C2928.59 364.936 2928.71 366.383 2928.71 367.829C2928.71 369.613 2928.59 371.265 2928.14 372.711C2927.69 374.383 2927.13 375.829 2926.25 377.049C2925.34 378.383 2924.12 379.491 2922.77 380.392C2921.42 381.294 2919.86 381.838 2918.17 382.289C2917.04 382.514 2915.93 382.74 2914.81 382.965C2913.45 383.078 2912.35 383.191 2911.11 383.191H2904.83C2903.82 383.191 2902.94 382.852 2902.03 382.195C2901.47 381.857 2901.02 381.425 2900.57 380.862C2900.12 380.298 2899.78 379.754 2899.56 379.303C2899.1 378.42 2898.88 377.632 2898.88 376.862V355.753L2900.89 354.645C2902.69 353.537 2904.36 352.748 2906.05 352.204C2907.95 351.64 2909.64 351.321 2911.45 351.208C2913.14 351.096 2914.69 351.208 2916.16 351.546C2917.74 351.884 2919.18 352.429 2920.54 353.105V353.218C2921.89 353.894 2923 354.777 2924.01 355.885C2925.03 356.88 2925.81 357.988 2926.58 359.321C2927.35 360.655 2927.82 362.101 2928.27 363.547L2928.26 363.49Z" fill="#FEFEFE"/>
<path fill-rule="evenodd" clip-rule="evenodd" d="M201.299 412.781C200.284 410.339 199.496 408.218 198.838 406.453L198.726 406.115C198.613 405.439 198.5 404.894 198.388 404.105V402.096C198.388 401.214 198.5 400.425 198.726 399.655C198.838 398.885 199.176 398.209 199.402 397.552C200.529 394.886 201.637 392.445 202.651 390.098C203.778 387.431 204.886 385.103 205.787 382.981L206.689 381.085C208.491 377.423 210.05 373.968 211.74 370.194L214.426 364.185L216.999 358.289C217.788 356.392 218.464 354.402 219.234 352.393C220.023 350.29 220.699 348.168 221.243 346.178C222.596 341.727 223.366 337.503 223.591 333.728C223.704 329.954 223.366 326.499 222.464 323.288C221.563 319.946 220.342 317.073 218.764 314.407C217.3 311.965 215.515 309.637 213.487 307.741C211.365 305.844 209.111 304.192 206.764 302.971C204.303 301.751 201.824 300.755 199.139 300.192C196.453 299.629 193.861 299.516 191.288 299.629C189.392 299.854 187.363 300.192 185.579 300.849C183.232 305.3 180.978 309.637 178.856 314.069C176.621 318.744 174.367 323.739 172.02 329.184C169.559 334.63 167.306 339.85 165.296 344.751C163.061 350.196 160.92 355.191 159.136 359.754L155.211 369.537L151.962 359.528C150.61 355.754 149.276 351.867 147.924 347.868C146.459 343.643 145.013 339.643 143.774 335.869C142.196 331.644 140.75 327.757 139.398 324.208C138.046 320.659 136.487 316.979 134.909 313.205C134.121 311.196 133.106 309.543 131.998 308.097C130.872 306.652 129.538 305.431 128.073 304.436C126.608 303.441 125.05 302.539 123.472 301.882C121.782 301.319 120.11 300.887 118.307 300.662C116.504 300.324 114.608 300.324 112.711 300.436C110.814 300.549 108.898 300.887 107.002 301.431C104.992 301.995 103.076 302.652 101.18 303.534C99.3766 304.304 97.5925 305.318 95.9022 306.539C94.212 307.647 92.6532 308.98 91.1883 310.426C89.7234 311.872 88.39 313.43 87.2632 315.195C86.1363 316.866 85.141 318.631 84.4649 320.528C83.7888 322.199 83.338 323.87 83 325.635C92.1837 349.313 101.273 373.085 110.457 396.857C110.682 397.421 110.795 398.078 111.021 398.754C111.133 399.524 111.246 400.2 111.246 400.97C111.246 401.852 111.246 402.528 111.133 403.298C111.021 404.068 110.795 404.857 110.57 405.514L110.457 405.626C109.556 407.729 108.767 409.626 107.997 411.297L102.288 422.845C101.386 424.742 100.485 426.732 99.4893 428.854C98.4939 430.976 97.5925 433.079 96.691 435.182C95.7895 437.285 94.8881 439.519 94.0054 441.735C93.1039 443.951 92.3151 446.298 91.5451 448.626C90.7564 450.955 90.0803 453.396 89.4229 455.968C89.0849 457.189 88.7468 458.635 88.6342 460.193C88.4088 461.864 88.2961 463.535 88.2961 465.3C88.1834 467.197 88.2961 469.075 88.5215 470.971C88.7468 472.868 89.0849 474.745 89.6483 476.529C90.099 478.426 90.6625 480.191 91.4512 481.975C92.1273 483.759 93.0288 485.411 94.0242 487.195C95.0383 488.753 96.1464 490.199 97.4986 491.532C98.7381 492.865 100.297 494.086 101.987 495.081C103.677 496.189 105.462 496.978 107.584 497.635C109.593 498.405 111.96 498.855 114.532 499.081C117.105 499.419 119.923 499.306 122.946 498.968C125.519 498.743 128.336 498.198 131.36 497.41C139.097 476.736 146.61 456.081 154.235 435.407L157.709 445.847C159.944 452.401 162.085 458.522 164.094 464.399L164.207 464.624C165.221 467.516 166.216 470.183 167.118 472.624C167.907 474.839 168.696 476.848 169.466 478.632C171.043 482.407 172.715 485.524 174.405 488.303C176.208 490.969 177.992 493.185 179.889 494.856C181.786 496.752 183.814 498.198 185.711 499.306C187.608 500.301 189.523 501.09 191.307 501.522C193.204 501.972 195.12 502.198 197.017 502.085C198.819 501.972 200.716 501.634 202.613 501.09C204.51 500.414 206.313 499.531 208.097 498.536C209.787 497.541 211.459 496.208 213.036 494.762C214.614 493.429 216.06 491.758 217.412 490.086C218.652 488.303 219.872 486.425 220.887 484.416C221.901 482.519 222.69 480.416 223.234 478.313C223.798 476.529 224.136 474.652 224.248 472.755C223.572 470.539 222.783 468.08 221.901 465.413C220.774 462.409 219.779 459.404 218.652 456.532L215.065 447.199L211.365 437.98L204.303 420.423L201.28 412.762L201.299 412.781ZM341.082 297.77C336.931 297.207 332.556 297 327.973 297C322.264 297 317.099 297.451 312.273 298.221C307.446 299.103 302.976 300.324 298.826 301.995C294.563 303.666 290.75 305.656 287.163 307.778C283.576 309.994 280.214 312.454 277.191 315.12C274.054 317.899 271.256 320.791 268.777 323.795C266.204 326.687 263.95 329.898 261.941 333.353C259.819 336.902 257.903 340.357 256.344 343.68C254.654 347.229 253.095 350.684 251.743 354.233C250.842 356.674 249.94 359.34 249.17 362.12C248.381 365.011 247.818 367.903 247.273 370.907C246.71 373.912 246.259 377.01 245.921 380.24C245.47 383.469 245.245 386.68 245.132 389.91C244.907 393.252 244.907 396.576 244.907 399.918C244.907 403.26 245.02 406.584 245.245 410.039C245.47 413.381 245.808 416.705 246.259 420.16C246.71 423.502 247.161 426.713 247.724 429.83C248.963 436.609 250.748 443.049 252.889 449.058C255.03 455.067 257.715 460.606 260.626 465.732C263.65 470.727 267.237 475.403 271.275 479.515C275.313 483.627 279.914 487.289 285.172 490.518C290.562 493.861 296.046 496.621 301.53 498.63C307.014 500.639 312.517 501.86 318.113 502.517C323.71 503.08 329.438 503.193 335.147 502.63C340.969 502.066 346.81 500.958 352.745 499.287C367.093 495.175 378.981 487.833 388.277 477.28C397.686 466.615 404.635 452.607 409.124 435.388C410.814 428.722 411.922 422.169 412.598 415.729C413.274 409.175 413.387 402.735 413.049 396.275C412.711 389.947 411.922 383.488 410.814 377.047C409.575 370.607 408.128 364.166 406.213 357.707C405.762 356.374 405.199 354.815 404.635 353.257C404.072 351.811 403.283 349.914 402.4 347.699C401.499 345.596 400.504 343.474 399.489 341.371C398.475 339.268 397.254 337.146 395.902 334.817C394.437 332.489 392.991 330.142 391.301 327.926C389.611 325.598 387.714 323.363 385.817 321.148C383.808 318.932 381.667 316.81 379.319 314.82C376.859 312.81 374.267 310.82 371.582 309.036C368.896 307.252 365.872 305.6 362.717 304.154C359.468 302.708 356.106 301.375 352.519 300.38C348.932 299.272 345.12 298.371 341.082 297.826V297.77ZM323.147 363.34C324.949 362.777 326.846 362.57 328.743 362.57C330.546 362.57 332.443 362.908 334.227 363.34C335.917 363.903 337.701 364.561 339.392 365.668C340.969 366.664 342.528 367.771 343.88 369.217C345.232 370.55 346.453 372.109 347.58 373.893C348.82 375.564 349.815 377.442 350.716 379.676C351.505 381.779 352.294 384.014 352.839 386.455C353.515 388.896 353.965 391.562 354.191 394.341C354.303 397.12 354.416 400.012 354.191 403.016C354.078 406.021 353.74 408.8 353.402 411.353C352.951 414.02 352.275 416.461 351.505 418.695C350.829 420.798 349.928 422.808 349.045 424.704C348.031 426.601 346.923 428.253 345.796 429.586C344.669 431.032 343.561 432.365 342.209 433.473C340.969 434.581 339.523 435.576 338.171 436.252C336.706 437.022 335.26 437.585 333.908 437.923C332.556 438.374 331.109 438.599 329.757 438.693C328.292 438.918 326.846 438.806 325.269 438.58C323.691 438.355 322.245 437.904 320.78 437.36C319.203 436.684 317.644 435.801 316.179 434.806C314.827 433.698 313.493 432.478 312.141 431.032C310.789 429.586 309.568 427.915 308.554 426.037C307.54 424.253 306.545 422.263 305.643 420.029C304.854 417.813 304.066 415.259 303.634 412.574C303.07 409.908 302.732 407.016 302.507 403.899C302.394 400.557 302.394 397.571 302.619 394.792C302.845 391.9 303.183 389.121 303.859 386.567C304.422 384.126 305.211 381.798 306.094 379.676C306.995 377.461 307.991 375.564 309.23 373.78C310.357 371.884 311.69 370.344 313.155 369.011C314.62 367.565 316.179 366.457 317.869 365.462C319.559 364.467 321.344 363.791 323.147 363.359V363.34ZM559.33 305.788C559.105 305.112 558.88 304.567 558.542 304.004H547.33L517.168 303.891C502.482 303.891 487.795 303.779 473.109 303.891C469.86 303.891 466.724 304.004 463.7 304.004C460.789 304.117 458.103 304.229 455.624 304.342C453.389 304.455 451.361 304.567 449.577 304.68C447.229 304.793 444.976 305.243 442.966 305.9C441.069 306.576 439.379 307.346 437.802 308.454C436.111 309.562 434.665 310.895 433.313 312.341C431.961 313.787 430.74 315.345 429.726 317.11C428.599 318.894 427.716 320.772 426.928 322.781C426.139 324.79 425.463 326.893 425.031 329.109C424.58 331.325 424.129 333.559 423.904 335.775C423.679 338.103 423.566 340.338 423.566 342.554C423.566 344.769 423.791 346.891 424.017 349.107C424.242 351.21 424.58 353.219 425.144 355.209C425.594 357.106 426.158 358.871 426.721 360.542C427.172 361.425 427.623 362.326 428.073 363.096C430.083 363.547 432.336 363.866 434.571 364.091C437.37 364.429 440.055 364.654 442.872 364.654C445.689 364.654 448.694 364.654 451.624 364.542C454.31 364.429 457.108 364.316 460.038 364.091L464.188 363.866V367.978C464.076 371.978 464.076 376.653 464.076 382.192C464.076 387.732 464.076 392.633 464.188 396.745L464.414 410.959C464.526 415.409 464.639 419.841 464.752 424.178L465.202 436.29L465.653 446.73C465.879 449.734 465.991 452.513 466.217 454.954C466.442 457.283 466.667 459.066 466.893 460.287C467.456 463.836 468.245 467.291 469.128 470.408C470.029 473.525 471.137 476.417 472.377 478.97C473.729 481.637 475.062 483.965 476.527 486.087C477.992 488.096 479.438 489.974 481.128 491.645C482.706 493.316 484.377 494.762 486.068 495.87C487.758 496.978 489.542 497.973 491.345 498.649C493.148 499.419 494.932 499.982 496.735 500.32C498.425 500.658 500.209 500.883 501.9 500.883C503.59 500.883 505.261 500.658 506.726 500.32C508.304 499.982 509.863 499.438 511.327 498.762C512.905 498.086 514.126 497.203 515.365 496.208C516.379 495.438 517.262 494.537 518.051 493.541C518.502 490.424 518.727 486.988 519.065 483.101C519.403 478.651 519.741 473.882 519.966 468.774C520.304 463.329 520.53 457.883 520.755 452.325C520.981 446.655 521.093 440.984 521.319 435.107C521.431 429.098 521.544 423.221 521.657 417.325C521.769 411.429 521.769 405.551 521.769 399.655V382.868C521.657 377.648 521.544 372.747 521.319 368.091L521.206 364.091H525.244L531.742 363.64L535.78 363.19C538.578 362.964 541.264 362.514 543.517 361.857C545.752 361.087 547.78 360.185 549.452 358.965C551.349 357.632 552.926 356.299 554.391 354.74C555.856 353.182 557.077 351.51 558.091 349.745C559.105 347.849 559.988 345.858 560.777 343.737C561.453 341.634 562.016 339.399 562.354 337.183C562.805 334.855 563.03 332.414 563.143 330.067C563.256 327.851 563.256 325.504 563.143 323.288C562.917 320.96 562.692 318.838 562.354 316.735C562.129 314.726 561.678 312.735 561.115 310.839C560.551 308.83 559.988 307.177 559.424 305.731L559.33 305.788ZM714.364 305.788C714.138 305.112 713.913 304.567 713.687 304.004H702.363L672.201 303.891C657.515 303.891 642.829 303.779 628.142 303.891C624.893 303.891 621.757 304.004 618.733 304.004C615.822 304.117 613.137 304.229 610.658 304.342C608.535 304.455 606.507 304.567 604.61 304.68C602.263 304.793 600.009 305.243 597.999 305.9C596.103 306.576 594.412 307.346 592.835 308.454C591.145 309.562 589.698 310.895 588.346 312.341C586.994 313.787 585.886 315.345 584.759 317.11C583.745 318.894 582.75 320.772 581.961 322.781C581.172 324.79 580.609 326.893 580.064 329.109C579.613 331.325 579.163 333.559 578.937 335.775C578.712 338.103 578.599 340.338 578.599 342.554C578.712 344.769 578.825 346.891 579.05 349.107C579.275 351.21 579.726 353.219 580.177 355.209C580.627 357.106 581.191 358.871 581.867 360.542C582.205 361.425 582.656 362.326 583.106 363.096C585.229 363.547 587.37 363.866 589.605 364.091C592.403 364.429 595.201 364.654 597.906 364.654C600.817 364.654 603.728 364.654 606.657 364.542C609.343 364.429 612.254 364.316 615.071 364.091L619.334 363.866L619.221 367.978C619.221 371.978 619.109 376.766 619.109 382.192C619.109 387.619 619.221 392.633 619.221 396.745L619.447 410.959C619.559 415.409 619.672 419.841 619.785 424.178L620.236 436.29L620.799 446.73C620.912 449.734 621.137 452.513 621.25 454.954C621.475 457.283 621.7 459.066 621.926 460.287C622.489 463.949 623.278 467.291 624.161 470.408C625.175 473.525 626.17 476.417 627.522 478.97C628.762 481.637 630.095 483.965 631.56 486.087C633.025 488.096 634.584 489.974 636.161 491.645C637.739 493.316 639.411 494.762 641.101 495.87C642.791 496.978 644.575 497.973 646.378 498.649C648.181 499.419 650.078 499.982 651.768 500.32C653.571 500.658 655.242 500.883 656.933 500.883C658.736 500.883 660.294 500.658 661.872 500.32C663.45 499.982 664.896 499.438 666.473 498.762C667.938 498.086 669.272 497.203 670.511 496.208C671.413 495.438 672.314 494.537 673.197 493.541C673.535 490.424 673.873 486.988 674.098 483.101C674.436 478.651 674.774 473.882 675.112 468.774C675.338 463.329 675.563 457.883 675.788 452.325C676.014 446.655 676.239 440.984 676.352 435.107C676.465 429.098 676.577 423.221 676.69 417.325C676.803 411.429 676.803 405.551 676.803 399.655C676.915 393.759 676.803 388.107 676.803 382.868C676.69 377.648 676.577 372.747 676.465 368.091L676.239 364.091H680.277L686.775 363.64L690.925 363.19C693.724 362.964 696.315 362.514 698.663 361.857C700.898 361.087 702.814 360.185 704.598 358.965C706.401 357.744 707.959 356.299 709.424 354.74C710.889 353.182 712.11 351.51 713.124 349.745C714.251 347.849 715.134 345.858 715.81 343.737C716.486 341.634 717.049 339.512 717.5 337.183C717.838 334.855 718.063 332.414 718.176 330.067C718.289 327.851 718.289 325.504 718.176 323.288C718.063 320.96 717.838 318.838 717.5 316.735C717.162 314.726 716.711 312.735 716.148 310.839C715.584 308.83 715.021 307.177 714.457 305.731L714.364 305.788ZM814.915 358.458L813.018 363.453H805.956L805.167 360.674L804.717 359.34L803.815 357.237C803.59 356.674 803.364 356.017 803.026 355.134L800.453 348.919L797.993 343.023L795.758 337.352L788.81 320.359C788.021 318.462 787.232 316.585 786.349 314.688C785.448 312.679 784.546 310.689 783.551 308.792C782.875 307.459 781.973 306.238 781.091 305.131C780.189 304.023 779.081 303.121 777.842 302.239C776.602 301.356 775.269 300.68 773.917 300.023C772.452 299.46 771.006 299.028 769.541 298.803C767.851 298.465 766.292 298.352 764.601 298.352C762.911 298.465 761.127 298.577 759.324 298.915C757.521 299.366 755.737 299.91 754.047 300.586C752.244 301.262 750.46 302.145 748.77 303.14C747.079 304.248 745.408 305.469 743.83 306.802C742.253 308.248 740.694 309.919 739.116 311.684C737.651 313.468 736.318 315.345 735.079 317.467C734.064 319.251 733.182 321.129 732.393 323.251C733.745 327.137 735.304 331.024 736.769 334.799C738.459 338.798 740.13 342.798 741.821 346.685C743.624 350.572 745.295 354.346 746.985 358.139C748.882 362.138 750.685 365.913 752.263 369.255C753.953 372.597 755.737 376.146 757.653 380.146L763.137 391.149C765.259 395.036 767.062 398.81 768.846 402.378C770.743 406.377 772.658 410.377 774.442 414.039C774.781 414.808 775.119 415.71 775.457 416.592C775.795 417.475 776.133 418.376 776.471 419.259C776.809 420.479 777.034 421.7 777.034 422.92C777.034 424.141 776.809 425.361 776.358 426.582L776.245 426.92C775.231 429.248 774.442 430.807 774.011 431.802C772.546 434.581 770.987 437.36 769.409 440.252L767.174 444.477L763.925 450.804C762.46 453.696 761.352 456.475 760.451 459.142C759.662 461.921 759.099 464.587 758.761 467.366C758.423 470.032 758.423 472.586 758.648 475.027C758.761 477.581 759.211 479.909 759.775 482.144C760.451 484.359 761.24 486.481 762.348 488.472C763.362 490.368 764.47 492.133 765.935 493.804C767.287 495.363 768.846 496.809 770.536 498.029C772.114 499.25 773.898 500.132 775.813 500.921C777.71 501.691 779.739 502.254 781.861 502.479C784.096 502.705 786.462 502.705 788.922 502.479C791.27 502.141 793.749 501.597 796.434 500.583C798.895 499.588 801.486 498.367 804.059 496.809C804.848 495.701 805.637 494.48 806.52 493.034C807.421 491.589 808.642 489.373 810.219 486.707C811.572 484.265 813.13 481.712 814.708 478.707L819.647 469.488C822.784 463.704 826.371 456.7 830.183 449.152L836.906 436.158L844.531 421.042C848.344 413.381 852.156 405.702 854.955 399.937L860.664 388.389L865.828 377.611L870.43 368.053L874.693 359.059L877.942 351.83C878.956 349.82 879.632 348.055 880.29 346.609V346.497C881.529 343.718 882.412 340.939 882.975 338.385C883.539 335.831 883.877 333.39 883.877 331.043C883.877 328.696 883.651 326.274 883.2 324.152C882.862 321.936 882.186 319.927 881.398 318.049C880.496 316.04 879.595 314.275 878.374 312.604C877.247 310.933 875.914 309.374 874.336 307.928C872.871 306.483 871.2 305.149 869.509 304.041C867.819 302.934 865.922 301.938 864.119 301.037C862.223 300.267 860.194 299.591 858.185 299.028C856.175 298.577 854.034 298.258 851.912 298.033C849.79 297.807 847.762 297.807 845.752 298.033C844.175 298.258 842.728 298.483 841.151 298.915L840.137 300.699C839.461 301.92 838.785 303.365 837.902 305.149L835.216 310.707C834.315 312.81 833.413 314.82 832.531 316.81C826.596 330.593 820.643 344.488 814.933 358.477L814.915 358.458ZM1008.84 434.468C1011.87 432.572 1015 430.243 1018.03 427.464C1020.6 425.136 1022.97 422.582 1025.09 419.803C1027.32 416.912 1029.13 413.907 1030.8 410.696C1032.37 407.467 1033.82 404.03 1034.95 400.575C1036.19 397.139 1037.18 393.571 1037.86 389.91C1038.65 386.248 1039.1 382.568 1039.44 378.794C1039.77 375.019 1039.77 371.245 1039.66 367.452C1039.55 363.678 1039.21 360.016 1038.65 356.336C1038.2 352.675 1037.41 349.107 1036.52 345.671C1035.74 342.328 1034.63 339.005 1033.39 335.888C1032.15 332.771 1030.82 329.785 1029.24 327.006C1027.66 324.227 1026.1 321.673 1024.19 319.458C1022.5 317.355 1020.49 315.345 1018.48 313.674C1015.9 311.571 1012.99 309.562 1009.95 308.003C1006.81 306.332 1003.56 304.886 1000.09 303.779C996.503 302.558 992.916 301.563 989.104 300.774C985.291 300.004 981.479 299.441 977.666 298.99C973.629 298.54 969.704 298.427 965.891 298.314C961.966 298.314 958.041 298.427 954.003 298.765C949.965 299.103 946.265 299.535 942.678 300.098C938.979 300.774 935.392 301.431 931.917 302.314C928.555 303.084 925.419 303.985 922.508 304.98C919.597 305.976 916.912 307.083 914.207 308.323C911.747 309.543 909.606 310.764 907.934 311.872C906.582 312.867 905.362 313.881 904.46 314.763C904.122 316.547 903.784 318.65 903.446 321.204C903.108 324.208 902.77 327.644 902.544 331.644C902.206 335.756 901.981 340.094 901.756 344.525C901.53 349.201 901.418 353.97 901.305 358.852C901.08 363.847 900.967 368.973 900.854 374.193C900.854 379.413 900.741 384.859 900.741 390.191V406.077C900.741 411.184 900.854 416.198 900.967 421.08C900.967 425.849 901.08 430.525 901.192 434.863C901.305 438.975 901.53 442.974 901.643 446.749C901.868 450.297 901.981 453.414 902.206 456.081C902.432 458.635 902.657 460.531 902.882 461.977C903.446 465.638 904.235 468.981 905.117 472.192C906.132 475.309 907.127 478.088 908.479 480.529C909.719 483.083 911.165 485.298 912.63 487.307C914.094 489.317 915.653 491.194 917.343 492.64C919.034 494.199 920.705 495.532 922.395 496.64C924.086 497.748 925.87 498.536 927.785 499.193C929.682 499.869 931.485 500.414 933.269 500.639C935.166 500.977 936.969 501.09 938.659 501.09C940.462 500.977 942.134 500.752 943.824 500.32C945.402 499.982 946.96 499.325 948.538 498.649C950.003 497.879 951.449 496.978 952.688 495.87C953.703 495.1 954.585 494.199 955.374 493.203C955.599 490.762 955.712 488.321 955.937 486.087C956.05 483.308 956.275 480.416 956.275 477.75L956.614 469.525L956.839 461.864L956.952 455.086V442.974C956.952 442.411 957.064 441.866 957.29 441.303C957.74 439.97 958.642 439.087 959.975 438.749C960.539 438.524 961.102 438.411 961.872 438.411C962.774 438.411 963.562 438.637 964.22 439.181L965.346 439.519C966.473 439.857 967.919 440.289 969.61 440.74C971.3 441.19 973.084 441.51 975.206 441.735C977.328 441.96 979.807 441.96 982.493 441.848C984.953 441.735 987.77 441.397 990.569 440.965C993.592 440.289 996.616 439.519 999.752 438.637C1002.78 437.642 1005.8 436.196 1008.82 434.412L1008.84 434.468ZM990.005 368.128C990.343 369.574 990.569 371.02 990.569 372.466C990.569 377.029 989.78 380.69 988.334 383.469C986.531 386.699 983.845 388.802 980.258 389.684H980.033C977.685 390.135 975.319 390.454 973.084 390.454H966.811C965.797 390.454 964.915 390.116 964.013 389.459C963.45 389.121 962.999 388.689 962.548 388.126C962.097 387.563 961.759 387.018 961.534 386.455C961.196 385.685 961.083 384.896 961.083 384.126L960.858 379.019L960.745 374.024V360.805L962.323 359.585C964.013 358.364 965.685 357.482 967.487 356.806C969.29 356.13 971.075 355.81 972.877 355.81C974.455 355.81 976.014 355.923 977.479 356.374C979.056 356.712 980.502 357.256 981.855 358.045C983.207 358.815 984.315 359.716 985.442 360.711C986.456 361.706 987.451 362.927 988.24 364.147C989.029 365.481 989.592 366.814 990.043 368.147L990.005 368.128Z" fill="#FEFEFE"/>
</svg>
